# xmcd
#
# Track frame offsets: 
#        150
#        13195
#        28914
#        43421
#        58626
#        76655
#        95743
#        113064
#        127536
#        144037
#        160839
#        174898
#        191320
#        210646
#        222773
#
# Disc length: 3221 seconds
#
# Revision: 2
# Processed by: cddbd v1.5.2PL0 Copyright (c) Steve Scherf et al.
# Submitted via: ExactAudioCopy v1.0b3
#
DISCID=bd0c930f
DTITLE=Rebecca Ferguson - Heaven (Deluxe Edition)
DYEAR=2012
DGENRE=Soul
TTITLE0=Nothing's Real But Love
TTITLE1=Glitter and Gold
TTITLE2=Shoulder to Shoulder
TTITLE3=Fairytale (Let Me Live My Life This Way)
TTITLE4=Mr Bright Eyes
TTITLE5=Fighting Suspicions
TTITLE6=Teach Me How to Be Loved
TTITLE7=Run Free
TTITLE8=Diamond to Stone
TTITLE9=Too Good to Lose
TTITLE10=Backtrack
TTITLE11=Strange and Beautiful (I'll Put a Spell on You)
TTITLE12=Good Days, Bad Days
TTITLE13=I'll Count the Days
TTITLE14=I'll Take Care of You (Live)
EXTD=
EXTT0=
EXTT1=
EXTT2=
EXTT3=
EXTT4=
EXTT5=
EXTT6=
EXTT7=
EXTT8=
EXTT9=
EXTT10=
EXTT11=
EXTT12=
EXTT13=
EXTT14=
PLAYORDER=
